<?xml version="1.0" encoding="UTF-8" standalone="no"?><!DOCTYPE svg PUBLIC "-//W3C//DTD SVG 1.1//EN" "http://www.w3.org/Graphics/SVG/1.1/DTD/svg11.dtd"><svg width="100%" height="100%" viewBox="0 0 2545 335" version="1.1" xmlns="http://www.w3.org/2000/svg" xmlns:xlink="http://www.w3.org/1999/xlink" xml:space="preserve" style="fill-rule:evenodd;clip-rule:evenodd;stroke-linejoin:round;stroke-miterlimit:1.41421;"><g id="_----" transform="matrix(5.35945,0,0,5.35837,-26,415.964)"><path d="M34.596,-76.031l3.084,3.084c0.984,0.984 1.453,1.811 1.408,2.481c-0.045,0.671 -0.559,1.497 -1.542,2.481l-21.723,21.589l21.723,21.589c0.983,0.983 1.497,1.81 1.542,2.481c0.045,0.67 -0.424,1.497 -1.408,2.48l-3.084,3.084l-27.489,-27.221c-1.699,-1.609 -1.699,-3.218 0,-4.827l27.489,-27.221Z" style="fill:#fff;fill-rule:nonzero;"/><path d="M73.045,-76.031l-3.084,3.084c-0.983,0.984 -1.452,1.811 -1.407,2.481c0.044,0.671 0.558,1.497 1.541,2.481l21.721,21.589l-21.721,21.589c-0.983,0.983 -1.497,1.81 -1.541,2.481c-0.045,0.67 0.424,1.497 1.407,2.48l3.084,3.084l27.486,-27.221c1.698,-1.609 1.698,-3.218 0,-4.827l-27.486,-27.221Z" style="fill:#fff;fill-rule:nonzero;"/></g><path id="_--copy" d="M168.631,135.117c0,-15.329 4.426,-27.314 13.277,-35.954c8.851,-8.64 21.082,-12.96 36.693,-12.96c4.321,0 8.729,0.749 13.224,2.247c4.496,1.498 8.677,3.518 12.545,6.062c3.868,2.543 7.196,4.93 9.984,7.159c2.787,2.23 5.436,4.599 7.945,7.108c2.509,-2.509 5.157,-4.878 7.945,-7.108c2.787,-2.229 6.115,-4.616 9.983,-7.159c3.868,-2.544 8.05,-4.564 12.545,-6.062c4.495,-1.498 8.903,-2.247 13.224,-2.247c15.612,0 27.843,4.32 36.694,12.96c8.851,8.64 13.276,20.625 13.276,35.954c0,15.399 -7.98,31.077 -23.939,47.034l-65.129,62.711c-1.254,1.254 -2.787,1.881 -4.599,1.881c-1.812,0 -3.346,-0.627 -4.6,-1.881l-65.233,-62.92c-0.697,-0.558 -1.655,-1.464 -2.875,-2.718c-1.219,-1.254 -3.153,-3.536 -5.802,-6.846c-2.648,-3.31 -5.017,-6.706 -7.108,-10.19c-2.091,-3.484 -3.955,-7.7 -5.593,-12.647c-1.638,-4.947 -2.457,-9.755 -2.457,-14.424Z" style="fill:#fff;fill-rule:nonzero;"/><path id="iLoveCoding.org" d="M657.282,31.02c6.041,0 11.212,2.164 15.514,6.491c4.303,4.327 6.454,9.529 6.454,15.606c0,6.077 -2.151,11.233 -6.454,15.468c-4.302,4.235 -9.473,6.353 -15.514,6.353c-6.041,0 -11.167,-2.118 -15.378,-6.353c-4.21,-4.235 -6.316,-9.391 -6.316,-15.468c0,-6.077 2.106,-11.279 6.316,-15.606c4.211,-4.327 9.337,-6.491 15.378,-6.491ZM641.08,110.984c5.126,-1.75 10.206,-2.624 15.241,-2.624c5.034,0 9.473,0.644 13.318,1.933c-7.14,55.427 -10.71,83.417 -10.71,83.969c-0.915,3.683 -1.373,6.767 -1.373,9.253c0,2.486 0.183,4.65 0.549,6.491c0.733,4.788 4.074,7.182 10.023,7.182c5.95,0 11.442,-3.913 16.476,-11.739c5.035,-7.826 8.833,-16.711 11.396,-26.655c1.282,0.737 3.295,2.946 6.041,6.629c2.746,3.683 4.394,6.445 4.943,8.287c-3.661,14.731 -9.886,26.608 -18.673,35.631c-8.787,9.023 -19.313,13.535 -31.578,13.535c-12.266,0 -21.373,-3.039 -27.323,-9.115c-5.95,-6.077 -8.924,-13.903 -8.924,-23.479c0,-2.025 0.091,-4.143 0.274,-6.352l9.886,-85.35c1.83,-3.315 5.309,-5.847 10.434,-7.596Z" style="fill:#fff;fill-rule:nonzero;"/><path d="M781.675,216.912c2.013,0.736 4.256,1.104 6.727,1.104c2.472,0 4.852,-0.276 7.14,-0.828c2.288,-0.553 4.393,-1.888 6.316,-4.005c1.922,-2.118 3.432,-3.821 4.531,-5.11c1.098,-1.289 2.471,-4.143 4.119,-8.563c2.013,-5.156 4.485,-12.43 7.414,-21.821c7.688,7.182 12.265,12.614 13.73,16.297c-8.788,32.409 -24.257,48.613 -46.408,48.613c-10.434,0 -23.707,-6.813 -39.816,-20.439c-8.421,13.626 -21.51,20.439 -39.268,20.439c-7.872,0 -14.965,-2.67 -21.281,-8.01c-6.316,-5.34 -9.474,-12.982 -9.474,-22.926c0,-9.943 3.295,-18.091 9.886,-24.444c6.59,-6.353 15.103,-9.53 25.537,-9.53c2.014,0 4.852,0.184 8.513,0.553l3.844,-35.079c-8.055,2.578 -20.503,5.892 -37.345,9.943l0,-20.716c13.73,-3.13 26.911,-6.629 39.542,-10.496l5.492,-45.023c3.844,-30.751 19.405,-46.127 46.682,-46.127c10.801,0 19.45,2.992 25.949,8.977c6.499,5.984 9.748,14.409 9.748,25.273c0,26.148 -16.75,47.233 -50.251,63.253l-8.238,65.186l-0.275,2.763c13.547,12.153 22.609,19.058 27.186,20.716ZM792.659,67.204c0,-7.734 -3.204,-11.601 -9.611,-11.601c-7.689,0 -12.54,9.115 -14.554,27.345l-2.746,21.821c17.94,-10.68 26.911,-23.202 26.911,-37.565ZM696.275,209.73c0,5.524 3.112,8.286 9.336,8.286c6.041,0 9.794,-5.432 11.259,-16.296c-3.479,-1.473 -6.728,-2.21 -9.749,-2.21c-3.02,0 -5.583,1.013 -7.688,3.038c-2.106,2.026 -3.158,4.42 -3.158,7.182Z" style="fill:#fff;fill-rule:nonzero;"/><path d="M883.825,108.083c16.842,0 30.893,5.433 42.151,16.297c11.259,10.864 16.888,24.123 16.888,39.775c0,23.754 -6.911,42.767 -20.732,57.038c-13.822,14.271 -30.526,21.406 -50.114,21.406c-19.589,0 -35.103,-5.616 -46.545,-16.849c-11.441,-11.232 -17.162,-25.135 -17.162,-41.708c0,-23.202 7.048,-41.616 21.144,-55.243c14.279,-13.81 32.402,-20.716 54.37,-20.716ZM856.64,145.372c-5.858,9.944 -9.062,22.466 -9.611,37.565c0,10.681 2.151,19.519 6.453,26.517c4.302,6.997 10.847,10.496 19.634,10.496c8.787,0 16.155,-4.88 22.105,-14.639c5.95,-9.76 8.924,-20.901 8.924,-33.422c0,-12.522 -2.105,-22.466 -6.315,-29.831c-4.211,-7.734 -10.664,-11.601 -19.359,-11.601c-8.696,0 -15.973,4.972 -21.831,14.915Z" style="fill:#fff;fill-rule:nonzero;"/><path d="M1033.34,228.098c-10.709,9.484 -22.929,14.225 -36.659,14.225c-13.73,0 -24.027,-4.557 -30.892,-13.672c-6.865,-9.115 -10.298,-19.566 -10.298,-31.351c0,-2.393 0.092,-4.787 0.275,-7.181l9.336,-78.721c5.858,-2.21 12.083,-3.315 18.673,-3.315c12.082,0 18.123,4.512 18.123,13.535c0,0.368 -1.51,12.66 -4.53,36.874c-3.021,24.215 -4.531,38.256 -4.531,42.123c0,10.496 5.034,15.744 15.103,15.744c8.604,0 15.835,-4.88 21.693,-14.639c10.252,-17.678 15.652,-37.657 16.201,-59.939l-2.471,0c-7.689,0 -13.547,-1.749 -17.574,-5.248c-4.577,-4.051 -6.865,-8.93 -6.865,-14.639c0,-5.708 1.739,-10.312 5.217,-13.811c4.21,-3.682 9.245,-5.524 15.103,-5.524c13.913,0 22.608,7.274 26.087,21.821c5.492,-0.737 9.428,-1.473 11.807,-2.21l0,15.744l-10.16,1.658l0,4.695c-0.183,16.573 -3.158,32.317 -8.924,47.233c-5.767,14.915 -14.005,27.115 -24.714,36.598ZM1034.58,121.894c0,3.131 2.654,4.696 7.963,4.696c0.549,0 1.098,0 1.648,0c-1.282,-4.972 -3.204,-7.458 -5.767,-7.458c-2.563,0 -3.844,0.921 -3.844,2.762Z" style="fill:#fff;fill-rule:nonzero;"/><path d="M1155.82,165.26c5.583,-6.814 8.375,-13.397 8.375,-19.75c0,-6.353 -1.693,-10.68 -5.08,-12.982c-3.387,-2.301 -7.094,-3.452 -11.121,-3.452c-8.604,0 -16.156,4.833 -22.655,14.501c-6.498,9.667 -9.748,21.176 -9.748,34.527c0,13.35 3.158,23.294 9.474,29.831c6.316,6.537 14.142,9.805 23.478,9.805c13.73,0 26.911,-4.788 39.542,-14.363c12.632,-9.575 22.883,-22.097 30.755,-37.565c4.027,3.867 7.689,8.655 10.984,14.363c-6.041,13.811 -16.751,27.345 -32.128,40.604c-7.689,6.445 -16.796,11.693 -27.323,15.744c-10.526,4.051 -21.372,6.076 -32.539,6.076c-18.307,0 -32.769,-5.616 -43.387,-16.849c-11.35,-12.153 -17.025,-27.713 -17.025,-46.68c0,-18.966 7.094,-35.539 21.281,-49.718c14.188,-14.179 31.167,-21.269 50.938,-21.269c14.096,0 25.538,3.085 34.325,9.254c8.787,6.168 13.272,14.501 13.455,24.997c0,14.179 -5.629,25.688 -16.887,34.527c-11.259,8.838 -26.682,15.007 -46.27,18.506l-3.845,-16.297c11.35,-2.394 19.817,-6.997 25.401,-13.81Z" style="fill:#fff;fill-rule:nonzero;"/><path d="M1288.86,242.599c-28.376,0 -49.199,-7.273 -62.471,-21.82c-13.273,-14.548 -19.909,-33.745 -19.909,-57.591c0,-23.846 4.073,-45.575 12.22,-65.186c8.146,-19.612 20.274,-35.724 36.384,-48.338c16.11,-12.614 33.547,-18.92 52.311,-18.92c18.764,0 33.501,4.557 44.21,13.672c10.71,9.115 16.064,21.361 16.064,36.737c0,15.375 -4.714,28.127 -14.142,38.255c-9.427,10.128 -20.457,15.192 -33.089,15.192c-12.631,0 -22.425,-2.808 -29.382,-8.425c-6.956,-5.616 -10.434,-11.601 -10.434,-17.953c0,-6.353 2.517,-11.325 7.551,-14.916c5.034,-3.591 12.403,-5.386 22.105,-5.386c-2.38,2.394 -3.57,5.57 -3.57,9.529c0,3.959 1.19,7.412 3.57,10.358c2.38,2.946 6.041,4.42 10.984,4.42c4.943,0 9.886,-2.624 14.828,-7.872c4.943,-5.249 7.415,-12.2 7.415,-20.855c0,-8.654 -2.609,-15.56 -7.826,-20.716c-5.218,-5.156 -12.586,-7.734 -22.106,-7.734c-12.448,0 -23.752,5.064 -33.912,15.192c-10.161,10.128 -17.895,23.018 -23.204,38.67c-5.309,15.652 -7.963,32.133 -7.963,49.442c0,14.916 3.203,28.082 9.611,39.499c3.295,5.892 8.192,10.588 14.691,14.087c6.498,3.498 14.141,5.248 22.929,5.248c15.011,0 29.473,-4.834 43.386,-14.501c13.913,-9.668 25.629,-22.144 35.149,-37.427l9.336,16.849c-10.801,17.677 -24.348,32.179 -40.641,43.503c-16.292,11.325 -34.324,16.987 -54.095,16.987Z" style="fill:#fff;fill-rule:nonzero;"/><path d="M1437.14,108.083c16.842,0 30.892,5.433 42.15,16.297c11.259,10.864 16.888,24.123 16.888,39.775c0,23.754 -6.91,42.767 -20.732,57.038c-13.821,14.271 -30.526,21.406 -50.114,21.406c-19.588,0 -35.103,-5.616 -46.544,-16.849c-11.442,-11.232 -17.163,-25.135 -17.163,-41.708c0,-23.202 7.048,-41.616 21.144,-55.243c14.279,-13.81 32.403,-20.716 54.371,-20.716ZM1409.95,145.372c-5.858,9.944 -9.061,22.466 -9.611,37.565c0,10.681 2.151,19.519 6.454,26.517c4.302,6.997 10.846,10.496 19.633,10.496c8.787,0 16.156,-4.88 22.105,-14.639c5.95,-9.76 8.925,-20.901 8.925,-33.422c0,-12.522 -2.105,-22.466 -6.316,-29.831c-4.21,-7.734 -10.663,-11.601 -19.359,-11.601c-8.696,0 -15.972,4.972 -21.831,14.915Z" style="fill:#fff;fill-rule:nonzero;"/><path d="M1621.53,33.92c4.485,-2.118 9.886,-3.176 16.202,-3.176c6.315,0 11.029,0.92 14.141,2.762c-1.83,14.363 -4.759,36.92 -8.787,67.672c-8.421,64.266 -12.631,99.667 -12.631,106.204c0,6.537 2.746,9.806 8.238,9.806c4.759,0 9.702,-2.993 14.828,-8.977c5.126,-5.985 9.794,-15.79 14.005,-29.417c5.125,4.972 8.695,10.404 10.709,16.297c-6.59,21.913 -16.934,36.092 -31.03,42.537c-6.407,3.13 -12.448,4.695 -18.123,4.695c-16.293,0 -27.185,-5.892 -32.677,-17.677c-9.52,11.969 -21.694,17.953 -36.522,17.953c-14.828,0 -27.322,-5.064 -37.483,-15.191c-10.16,-10.128 -15.24,-23.478 -15.24,-40.051c0,-24.123 7.048,-43.366 21.144,-57.729c14.096,-14.363 31.945,-21.545 53.547,-21.545c0.549,0 1.098,0 1.647,0c7.506,0 14.554,1.105 21.145,3.315l8.237,-69.606c1.282,-3.13 4.165,-5.754 8.65,-7.872ZM1585.97,129.628c-11.716,0 -21.007,4.466 -27.872,13.396c-6.865,8.931 -10.938,22.236 -12.219,39.913c-0.184,1.658 -0.275,3.223 -0.275,4.696c0,9.023 2.151,16.204 6.453,21.545c4.302,5.34 9.84,8.01 16.613,8.01c11.533,0 20.229,-8.195 26.087,-24.583l7.14,-59.386c-6.042,-2.394 -11.35,-3.591 -15.927,-3.591Z" style="fill:#fff;fill-rule:nonzero;"/><path d="M1694.71,31.02c6.041,0 11.213,2.164 15.515,6.491c4.302,4.327 6.453,9.529 6.453,15.606c0,6.077 -2.151,11.233 -6.453,15.468c-4.302,4.235 -9.474,6.353 -15.515,6.353c-6.041,0 -11.167,-2.118 -15.378,-6.353c-4.21,-4.235 -6.315,-9.391 -6.315,-15.468c0,-6.077 2.105,-11.279 6.315,-15.606c4.211,-4.327 9.337,-6.491 15.378,-6.491ZM1678.51,110.984c5.126,-1.75 10.206,-2.624 15.241,-2.624c5.034,0 9.473,0.644 13.318,1.933c-7.14,55.427 -10.71,83.417 -10.71,83.969c-0.915,3.683 -1.373,6.767 -1.373,9.253c0,2.486 0.183,4.65 0.55,6.491c0.732,4.788 4.073,7.182 10.022,7.182c5.95,0 11.442,-3.913 16.476,-11.739c5.035,-7.826 8.833,-16.711 11.396,-26.655c1.282,0.737 3.295,2.946 6.041,6.629c2.746,3.683 4.394,6.445 4.943,8.287c-3.661,14.731 -9.885,26.608 -18.673,35.631c-8.787,9.023 -19.313,13.535 -31.578,13.535c-12.266,0 -21.373,-3.039 -27.323,-9.115c-5.95,-6.077 -8.924,-13.903 -8.924,-23.479c0,-2.025 0.091,-4.143 0.274,-6.352l9.886,-85.35c1.83,-3.315 5.309,-5.847 10.434,-7.596Z" style="fill:#fff;fill-rule:nonzero;"/><path d="M1800.16,210.006l6.591,-61.595c0,-4.972 -1.282,-9.115 -3.845,-12.43c-2.562,-3.315 -6.819,-4.972 -12.768,-4.972c-5.95,0 -10.984,2.624 -15.103,7.872c-4.119,5.248 -6.728,11.831 -7.826,19.749c-6.591,50.455 -10.069,77.893 -10.435,82.312l-37.071,0l15.103,-130.096c7.689,-2.026 13.547,-3.039 17.574,-3.039c12.266,0 18.673,4.512 19.222,13.535c8.97,-8.839 19.726,-13.259 32.266,-13.259c12.54,0 22.379,3.131 29.519,9.392c7.139,6.261 10.709,14.179 10.709,23.754c0,2.578 -0.549,7.458 -1.647,14.639c-4.211,27.99 -6.316,44.287 -6.316,48.89c0,8.471 2.837,12.706 8.512,12.706c12.449,0 21.877,-13.074 28.284,-39.222c6.224,6.629 9.977,11.877 11.259,15.744c-9.703,32.409 -26.545,48.613 -50.527,48.613c-11.35,0 -19.771,-3.498 -25.263,-10.496c-5.492,-6.997 -8.238,-14.363 -8.238,-22.097Z" style="fill:#fff;fill-rule:nonzero;"/><path d="M1938.28,108.083c10.069,0 19.314,1.658 27.735,4.972c5.675,-3.498 11.624,-5.248 17.849,-5.248c6.224,0 11.167,0.829 14.828,2.486l-9.886,77.892c13.547,-10.496 23.799,-20.071 30.755,-28.726l7.964,16.849c-10.435,11.049 -24.348,22.834 -41.739,35.355l-7.414,57.729c-2.014,17.31 -7.643,30.614 -16.888,39.913c-9.245,9.299 -21.19,13.949 -35.835,13.949c-8.421,0 -16.659,-2.762 -24.714,-8.287c-8.421,-5.892 -12.631,-15.376 -12.631,-28.45c0,-16.02 7.597,-30.659 22.791,-43.918c-12.997,-0.92 -24.164,-6.353 -33.501,-16.296c-9.336,-9.944 -14.004,-22.926 -14.004,-38.946c0,-24.123 7.048,-43.366 21.144,-57.729c14.096,-14.363 31.945,-21.545 53.546,-21.545ZM1942.4,129.628c-11.716,0 -21.006,4.466 -27.871,13.396c-6.865,8.931 -10.939,22.236 -12.22,39.913c-0.183,1.658 -0.275,3.223 -0.275,4.696c0,9.023 2.151,16.204 6.453,21.545c4.303,5.34 9.84,8.01 16.614,8.01c11.533,0 20.228,-8.103 26.087,-24.307l6.864,-59.938c-5.675,-2.21 -10.892,-3.315 -15.652,-3.315ZM1909.45,282.374c0,4.972 1.418,8.885 4.256,11.739c2.837,2.854 6.087,4.282 9.748,4.282c10.252,0 16.201,-6.538 17.849,-19.612l4.668,-41.432c-24.348,14.548 -36.521,29.555 -36.521,45.023Z" style="fill:#fff;fill-rule:nonzero;"/></svg>